#!OML:ASF H:\Dans Jumps\Project 1\Capture day 1\Session 1\subject.ASF
:FULLY-SPECIFIED
:DEGREES
634
root 0.474923 17.5849 7.00047 7.25664 -2.9297 -1.69423
lowerback -4.73269 -0.564627 0.444176
upperback 0.506524 -0.825922 1.47585
thorax 3.19118 -0.416503 1.20898
lowerneck -7.71566 -3.358 -2.62115
upperneck 4.7011 -4.2158 0.0759781
head 2.91418 -2.14179 0.272376
rclavicle -2.65874e-015 1.5704e-014
rhumerus -26.5236 -18.3051 -78.5254
rradius 22.4811
rwrist 37.8449
rhand -18.7675 -26.4249
rfingers 7.12502
rthumb 7.52954 -56.2709
lclavicle -2.65874e-015 1.5704e-014
lhumerus -29.1645 1.98161 88.4155
lradius 19.2572
lwrist 5.33565
lhand -26.5702 -6.1233
lfingers 7.12502
lthumb -0.00500567 23.8564
rfemur -12.5881 -2.08258 20.0454
rtibia 23.6153
rfoot -16.5393 1.79419
rtoes 12.9585
lfemur -10.2338 9.54085 -18.0591
ltibia 20.3285
lfoot -13.1755 7.68822
ltoes -0.392276
635
root 0.474588 17.5849 7.00112 7.24622 -2.92166 -1.68909
lowerback -4.73291 -0.555488 0.44973
upperback 0.501867 -0.813888 1.47299
thorax 3.18615 -0.410375 1.20381
lowerneck -7.86003 -3.18518 -2.5861
upperneck 4.83304 -3.98188 0.0477784
head 2.98176 -2.02671 0.265514
rclavicle 7.33018e-015 -7.35503e-015
rhumerus -26.5578 -18.3564 -78.5004
rradius 22.4613
rwrist 37.887
rhand -18.7717 -26.4253
rfingers 7.12502
rthumb 7.52547 -56.2714
lclavicle 7.33018e-015 -7.35503e-015
lhumerus -29.164 1.94056 88.4344
lradius 19.2558
lwrist 5.33732
lhand -26.564 -6.12719
lfingers 7.12502
lthumb 0.000990272 23.8526
rfemur -12.5713 -2.0934 20.0404
rtibia 23.614
rfoot -16.5463 1.79933
rtoes 12.9896
lfemur -10.2137 9.53655 -18.0607
ltibia 20.3168
lfoot -13.1759 7.68305
ltoes -0.375805
636
root 0.47432 17.5849 7.0019 7.23681 -2.91544 -1.67766
lowerback -4.73331 -0.546716 0.449319
upperback 0.495809 -0.801902 1.4677
thorax 3.17983 -0.404351 1.1995
lowerneck -8.00171 -3.01575 -2.55639
upperneck 4.9648 -3.75263 0.0288058
head 3.04957 -1.91376 0.262754
rclavicle 1.11071e-014 -2.5842e-015
rhumerus -26.5958 -18.4043 -78.4761
rradius 22.4416
rwrist 37.9255
rhand -18.776 -26.4259
rfingers 7.12502
rthumb 7.52134 -56.2722
lclavicle 1.11071e-014 -2.5842e-015
lhumerus -29.1633 1.89375 88.4513
lradius 19.2581
lwrist 5.35256
lhand -26.5554 -6.12519
lfingers 7.12502
lthumb 0.00930009 23.8546
rfemur -12.5563 -2.10816 20.0281
rtibia 23.6139
rfoot -16.5548 1.8085
rtoes 13.0133
lfemur -10.1928 9.53052 -18.0701
ltibia 20.3026
lfoot -13.1755 7.68057
ltoes -0.370823
637
root 0.474099 17.5848 7.00275 7.22885 -2.90931 -1.66522
lowerback -4.73505 -0.537156 0.448504
upperback 0.489178 -0.788816 1.46135
thorax 3.17364 -0.397775 1.1944
lowerneck -8.13463 -2.85201 -2.52134
upperneck 5.08584 -3.53169 0.00682382
head 3.11225 -1.80494 0.258257
rclavicle -9.93923e-015 -5.96354e-015
rhumerus -26.6369 -18.4533 -78.451
rradius 22.4204
rwrist 37.9615
rhand -18.7829 -26.4289
rfingers 7.12502
rthumb 7.51474 -56.2754
lclavicle -9.93923e-015 -5.96354e-015
lhumerus -29.1576 1.84159 88.466
lradius 19.2574
lwrist 5.37585
lhand -26.5512 -6.12669
lfingers 7.12502
lthumb 0.0133872 23.8531
rfemur -12.5424 -2.12395 20.0146
rtibia 23.6131
rfoot -16.5632 1.81759
rtoes 13.0281
lfemur -10.1732 9.52267 -18.0809
ltibia 20.2885
lfoot -13.1759 7.67859
ltoes -0.358783
638
root 0.473909 17.5848 7.00371 7.22224 -2.90516 -1.65169
lowerback -4.73971 -0.526592 0.446337
upperback 0.483651 -0.774339 1.45404
thorax 3.17022 -0.390525 1.18913
lowerneck -8.24805 -2.69517 -2.47836
upperneck 5.18412 -3.32114 -0.0210469
head 3.16347 -1.70126 0.250688
rclavicle -3.90115e-015 -1.19271e-015
rhumerus -26.6786 -18.5022 -78.4259
rradius 22.3988
rwrist 37.9951
rhand -18.7903 -26.4252
rfingers 7.12502
rthumb 7.50756 -56.2719
lclavicle -3.90115e-015 -1.19271e-015
lhumerus -29.1474 1.7964 88.4752
lradius 19.2631
lwrist 5.40896
lhand -26.5278 -6.08244
lfingers 7.12502
lthumb 0.0360032 23.8973
rfemur -12.5296 -2.13762 19.9997
rtibia 23.6103
rfoot -16.5703 1.82701
rtoes 13.0379
lfemur -10.1557 9.51312 -18.0934
ltibia 20.2763
lfoot -13.1783 7.68032
ltoes -0.343974
639
root 0.473706 17.5848 7.00465 7.2207 -2.90302 -1.64667
lowerback -4.74919 -0.514502 0.452172
upperback 0.477994 -0.758421 1.44873
thorax 3.16927 -0.382437 1.18151
lowerneck -8.33883 -2.54756 -2.42646
upperneck 5.25423 -3.12398 -0.0599246
head 3.20064 -1.60434 0.237998
rclavicle -3.65267e-015 -8.94531e-015
rhumerus -26.7207 -18.5502 -78.4014
rradius 22.378
rwrist 38.0234
rhand -18.7967 -26.4147
rfingers 7.12502
rthumb 7.50139 -56.2617
lclavicle -3.65267e-015 -8.94531e-015
lhumerus -29.1349 1.75212 88.483
lradius 19.3061
lwrist 5.49378
lhand -26.4326 -5.77719
lfingers 7.12502
lthumb 0.127948 24.2025
rfemur -12.5215 -2.14459 19.9943
rtibia 23.6048
rfoot -16.5747 1.83126
rtoes 13.0452
lfemur -10.1453 9.50492 -18.0975
ltibia 20.267
lfoot -13.1813 7.68463
ltoes -0.326519
640
root 0.473433 17.5847 7.0057 7.21908 -2.90305 -1.6462
lowerback -4.76167 -0.500511 0.461046
upperback 0.474454 -0.740267 1.44495
thorax 3.17215 -0.373202 1.1739
lowerneck -8.40238 -2.41117 -2.37159
upperneck 5.29405 -2.94268 -0.1052
head 3.22235 -1.51532 0.222536
rclavicle 4.99446e-015 1.03368e-014
rhumerus -26.7648 -18.5988 -78.3751
rradius 22.3604
rwrist 38.0518
rhand -18.793 -26.4055
rfingers 7.12502
rthumb 7.50493 -56.2523
lclavicle 4.99446e-015 1.03368e-014
lhumerus -29.1188 1.71006 88.4902
lradius 19.3756
lwrist 5.61814
lhand -26.2794 -5.27268
lfingers 7.12502
lthumb 0.275931 24.7069
rfemur -12.5121 -2.14434 19.9942
rtibia 23.5971
rfoot -16.5777 1.83031
rtoes 13.0468
lfemur -10.1359 9.50046 -18.0962
ltibia 20.2603
lfoot -13.1855 7.68978
ltoes -0.310177
641
root 0.473153 17.5846 7.00673 7.21846 -2.90498 -1.64659
lowerback -4.7756 -0.485774 0.469937
upperback 0.472156 -0.721176 1.44165
thorax 3.17712 -0.363508 1.16683
lowerneck -8.45792 -2.28239 -2.31358
upperneck 5.31499 -2.77182 -0.156458
head 3.23617 -1.43155 0.204299
rclavicle 2.55935e-015 -1.51076e-014
rhumerus -26.8082 -18.6521 -78.3474
rradius 22.3424
rwrist 38.0853
rhand -18.7851 -26.3915
rfingers 7.12502
rthumb 7.5126 -56.2381
lclavicle 2.55935e-015 -1.51076e-014
lhumerus -29.0998 1.67306 88.496
lradius 19.4661
lwrist 5.7711
lhand -26.0822 -4.59516
lfingers 7.12502
lthumb 0.466351 25.3841
rfemur -12.5038 -2.14204 19.9948
rtibia 23.5883
rfoot -16.5796 1.82932
rtoes 13.0517
lfemur -10.1286 9.49872 -18.0945
ltibia 20.2554
lfoot -13.1879 7.6981
ltoes -0.32449
642
root 0.472866 17.5844 7.00771 7.21755 -2.90832 -1.64875
lowerback -4.78895 -0.470308 0.479715
upperback 0.470203 -0.701204 1.43956
thorax 3.18213 -0.353372 1.16059
lowerneck -8.49707 -2.16715 -2.26403
upperneck 5.31856 -2.61874 -0.206848
head 3.24141 -1.35664 0.187188
rclavicle 1.37161e-014 -1.68967e-014
rhumerus -26.8531 -18.7047 -78.3182
rradius 22.3263
rwrist 38.12
rhand -18.7722 -26.3789
rfingers 7.12502
rthumb 7.52499 -56.225
lclavicle 1.37161e-014 -1.68967e-014
lhumerus -29.0798 1.63502 88.5024
lradius 19.5607
lwrist 5.93583
lhand -25.8716 -3.86296
lfingers 7.12502
lthumb 0.669769 26.1157
rfemur -12.4966 -2.13756 19.9976
rtibia 23.5814
rfoot -16.5816 1.82664
rtoes 13.0493
lfemur -10.1201 9.49687 -18.0907
ltibia 20.2491
lfoot -13.1893 7.70647
ltoes -0.331924
643
root 0.472629 17.5843 7.00862 7.21626 -2.91108 -1.64994
lowerback -4.80213 -0.455371 0.488379
upperback 0.47012 -0.681915 1.43786
thorax 3.189 -0.343602 1.15532
lowerneck -8.53264 -2.0635 -2.2271
upperneck 5.30966 -2.4803 -0.251754
head 3.24229 -1.28897 0.173404
rclavicle -1.11816e-015 -8.94531e-015
rhumerus -26.8957 -18.756 -78.2893
rradius 22.3104
rwrist 38.1559
rhand -18.7606 -26.3736
rfingers 7.12502
rthumb 7.53619 -56.2194
lclavicle -1.11816e-015 -8.94531e-015
lhumerus -29.0578 1.6095 88.5047
lradius 19.6384
lwrist 6.07214
lhand -25.6881 -3.21548
lfingers 7.12502
lthumb 0.846952 26.7626
rfemur -12.4905 -2.13636 19.999
rtibia 23.5769
rfoot -16.5846 1.82798
rtoes 13.0468
lfemur -10.1101 9.49407 -18.0882
ltibia 20.2408
lfoot -13.1873 7.71518
ltoes -0.349787
644
root 0.472266 17.5842 7.00931 7.21739 -2.91609 -1.64628
lowerback -4.81274 -0.440921 0.488842
upperback 0.466337 -0.662701 1.43609
thorax 3.19071 -0.334004 1.15462
lowerneck -8.54815 -1.96744 -2.21097
upperneck 5.28308 -2.35166 -0.277444
head 3.23404 -1.2257 0.169313
rclavicle 9.64106e-015 -2.98177e-015
rhumerus -26.9484 -18.7918 -78.2593
rradius 22.3009
rwrist 38.1802
rhand -18.7529 -26.3678
rfingers 7.12502
rthumb 7.54364 -56.2133
lclavicle 9.64106e-015 -2.98177e-015
lhumerus -29.0529 1.6245 88.4943
lradius 19.7022
lwrist 6.13474
lhand -25.5513 -2.74278
lfingers 7.12502
lthumb 0.979147 27.2347
rfemur -12.4901 -2.12871 19.996
rtibia 23.5746
rfoot -16.5854 1.82453
rtoes 13.0381
lfemur -10.1033 9.48846 -18.091
ltibia 20.2305
lfoot -13.1818 7.72628
ltoes -0.373341
